<svg xmlns="http://www.w3.org/2000/svg" width="41" height="41" viewBox="0 0 41 26">
    <style>
        path {
        fill: black;
        }
        @media (prefers-color-scheme: dark) {
        path {
        fill: white;
        }
        }
    </style>
    <path fill-rule="evenodd" d="M33.529 6.203c.065.024.128.05.19.08.146.046.292.096.438.149 5.202 1.893 7.888 7.635 6 12.825-1.89 5.19-7.638 7.862-12.84 5.968l-16.956-6.17a2.002 2.002 0 0 1-1.2-2.566 2.002 2.002 0 0 1 2.568-1.194l9.42 3.429a9.942 9.942 0 0 1-.328-4.376L1.48 7.308a2.002 2.002 0 0 1-1.2-2.565 2.002 2.002 0 0 1 2.569-1.194l19.341 7.04a9.942 9.942 0 0 1 3.063-3.142L15.833 4.02a2.002 2.002 0 0 1-1.2-2.565A2.002 2.002 0 0 1 17.201.26L33.53 6.203zm-.673 3.98a6.026 6.026 0 1 0-4.122 11.325 6.026 6.026 0 0 0 4.122-11.324z"/>
</svg>
